<svg id="Layer_1" data-name="Layer 1" xmlns="http://www.w3.org/2000/svg" xmlns:xlink="http://www.w3.org/1999/xlink" viewBox="0 0 3000 2000">
  <defs>
    <style>
      .cls-1 {
        fill: #a7bd37;
      }

      .cls-2 {
        fill: #38385c;
      }

      .cls-3 {
        fill: #ffb6a6;
      }

      .cls-22, .cls-4, .cls-9 {
        fill: #a4c4ff;
      }

      .cls-5 {
        fill: #f85c3d;
      }

      .cls-6 {
        fill: #fff;
      }

      .cls-7 {
        fill: #d1daf7;
      }

      .cls-28, .cls-8 {
        fill: #e3eefe;
      }

      .cls-9 {
        opacity: 0.67;
      }

      .cls-10 {
        clip-path: url(#clip-path);
      }

      .cls-11 {
        fill: #3e5409;
        opacity: 0.38;
      }

      .cls-12 {
        opacity: 0.36;
      }

      .cls-13, .cls-18 {
        fill: #3875ff;
      }

      .cls-14 {
        clip-path: url(#clip-path-2);
      }

      .cls-15 {
        fill: #1a1a35;
      }

      .cls-16 {
        clip-path: url(#clip-path-3);
      }

      .cls-17 {
        fill: #739bfd;
      }

      .cls-18, .cls-22 {
        opacity: 0.39;
      }

      .cls-19 {
        clip-path: url(#clip-path-4);
      }

      .cls-20 {
        fill: #df4930;
      }

      .cls-21 {
        clip-path: url(#clip-path-5);
      }

      .cls-23 {
        clip-path: url(#clip-path-6);
      }

      .cls-24 {
        fill: #ff8370;
      }

      .cls-25 {
        clip-path: url(#clip-path-7);
      }

      .cls-26 {
        clip-path: url(#clip-path-8);
      }

      .cls-27 {
        clip-path: url(#clip-path-9);
      }

      .cls-28 {
        opacity: 0.5;
      }

      .cls-29 {
        clip-path: url(#clip-path-10);
      }

      .cls-30 {
        clip-path: url(#clip-path-11);
      }

      .cls-31 {
        fill: #e3eefd;
      }
    </style>
    <clipPath id="clip-path">
      <path class="cls-1" d="M541.52669,1787.6044s-243.0382-23.804-296.0399-244.2235c0,0,153.0137,4.2783,192.5209,55.3326,0,0-82.175-60.717-94.8173-189.7251,0,0,113.8549,64.8667,135.9048,129.1187,0,0-44.2481-46.6965-25.2846-191.1287l106.3416,200.4122Z"/>
    </clipPath>
    <clipPath id="clip-path-2">
      <rect class="cls-2" x="589.86569" y="1153.4964" width="253.51609" height="92.1531" rx="9.7582"/>
    </clipPath>
    <clipPath id="clip-path-3">
      <path class="cls-4" d="M599.62388,1245.6495h232.021a0,0,0,0,1,0,0v513.295A28.65988,28.65988,0,0,1,802.985,1787.6044H628.28378a28.6599,28.6599,0,0,1-28.6599-28.6599v-513.295A0,0,0,0,1,599.62388,1245.6495Z"/>
    </clipPath>
    <clipPath id="clip-path-4">
      <path class="cls-5" d="M1431.0502,1204.1034c-41.7207-37.9268-121.8802-71.0142-114.5851-138.6621h-200.799c7.3314,67.5852-72.9824,100.8521-114.5848,138.6637a170.21386,170.21386,0,0,0-65.73272,134.3754V1746.834a40.7704,40.7704,0,0,0,40.7703,40.7704c52.40532-1.2341,227.00822.8893,276.22522-.0027l203.6681.0027a40.77049,40.77049,0,0,0,40.7704-40.7704V1338.4804A170.21994,170.21994,0,0,0,1431.0502,1204.1034Z"/>
    </clipPath>
    <clipPath id="clip-path-5">
      <path class="cls-2" d="M1320.0999,1065.4413H1111.7952a28.20708,28.20708,0,0,1-28.2071-28.207V977.3797a28.20717,28.20717,0,0,1,28.2071-28.2071h208.3047a28.20717,28.20717,0,0,1,28.2071,28.2071C1344.9623,1003.5129,1362.2196,1064.5473,1320.0999,1065.4413Z"/>
    </clipPath>
    <clipPath id="clip-path-6">
      <path class="cls-3" d="M2261.2614,1675.7659l8.2061,69.6449s14.837,6.2222,30.5594,6.0659c15.7225-.1563,16.3633-5.0413,16.3633-5.0413l-1.9808-71.649Z"/>
    </clipPath>
    <clipPath id="clip-path-7">
      <path class="cls-3" d="M2499.5615,1659.7491l48.9702,50.1965s15.5537-4.1154,27.9198-13.826c12.3662-9.7106,9.8955-13.9732,9.8955-13.9732l-45.258-55.5807Z"/>
    </clipPath>
    <clipPath id="clip-path-8">
      <path class="cls-3" d="M2277.0273,780.7836l-4.8045-39.6463c-18.8193,1.3199-41.6555,2.1691-41.181-22.9388l9.5843-92.9276,96.0168.0231c-2.3503,38.7774.6929,116.7988,5.1561,155.4896Z"/>
    </clipPath>
    <clipPath id="clip-path-9">
      <path class="cls-6" d="M2174.1184,822.952l-95.8667,167.5644-123.286-137.1203-56.411,39.1227,118.7746,181.3577a70.03331,70.03331,0,0,0,58.587,31.6635c40.9488,3.5807,61.327-22.985,84.238-51.7354-6.5462,31.1098-51.9573,250.4194-48.9248,315.6158,3.2161,69.1462,120.0105,116.5104,120.0105,116.5104l14.9797-705.1472S2184.759,802.0474,2174.1184,822.952Z"/>
    </clipPath>
    <clipPath id="clip-path-10">
      <polygon class="cls-7" points="1843.774 775.401 1944.456 920.946 1828.676 922.507 1729.12 777.84 1843.774 775.401"/>
    </clipPath>
    <clipPath id="clip-path-11">
      <path class="cls-3" d="M2229.3228,945.2581s-27.0158-17.1438-32.6458-17.4566c-5.6299-.3128-47.5415,8.6402-47.2287,17.4566.3128,8.8163,22.2069,51.979,29.4007,51.3535,7.1938-.6256,41.4625-5.9698,41.4625-5.9698Z"/>
    </clipPath>
  </defs>
  <path class="cls-8" d="M262.40159,1787.6044H2768.1314L2586.7268,742.7734c-31.5766-181.8709-207.5128-301.4328-388.2349-263.8349L627.43928,805.7843C216.99319,875.2401,321.75309,1496.3097,262.40159,1787.6044Z"/>
  <path class="cls-9" d="M465.71249,1787.6044l-4.1216-846.792a21.10051,21.10051,0,0,1,21.1002-21.2031H604.65328v867.9951Z"/>
  <g>
    <path class="cls-1" d="M541.52669,1787.6044s-243.0382-23.804-296.0399-244.2235c0,0,153.0137,4.2783,192.5209,55.3326,0,0-82.175-60.717-94.8173-189.7251,0,0,113.8549,64.8667,135.9048,129.1187,0,0-44.2481-46.6965-25.2846-191.1287l106.3416,200.4122Z"/>
    <g class="cls-10">
      <path class="cls-11" d="M481.24389,1373.3323s19.8143,383.2123-26.5258,404.687l105.4341,38.4284-31.9681-407.4593Z"/>
    </g>
  </g>
  <g>
    <rect class="cls-7" x="501.14509" y="689.6361" width="929.05011" height="1097.9683" rx="40.3816"/>
    <g>
      <g>
        <g>
          <path class="cls-6" d="M664.74308,884.1717H576.84549a30.09015,30.09015,0,0,1,0-60.1803h87.89759Z"/>
          <path class="cls-4" d="M664.74308,823.9914h87.8975a30.09015,30.09015,0,1,1,0,60.1803h-87.8975Z"/>
        </g>
        <g>
          <path class="cls-6" d="M664.58648,994.0399H576.689a30.09015,30.09015,0,1,1,0-60.1803h87.89748Z"/>
          <path class="cls-4" d="M664.58648,933.8596h87.8976a30.09015,30.09015,0,0,1,0,60.1803h-87.8976Z"/>
        </g>
        <g>
          <path class="cls-6" d="M664.43,1103.9081H576.53239a30.09015,30.09015,0,0,1,0-60.1803H664.43Z"/>
          <path class="cls-4" d="M664.43,1043.7278h87.89748a30.09015,30.09015,0,1,1,0,60.1803H664.43Z"/>
        </g>
        <g>
          <path class="cls-6" d="M664.27338,1213.7763H576.37579a30.09015,30.09015,0,0,1,0-60.1803h87.89759Z"/>
          <path class="cls-4" d="M664.27338,1153.596h87.8975a30.09015,30.09015,0,1,1,0,60.1803h-87.8975Z"/>
        </g>
        <g>
          <path class="cls-6" d="M664.11678,1323.6445H576.21929a30.0902,30.0902,0,1,1,0-60.1804h87.89749Z"/>
          <path class="cls-4" d="M664.11678,1263.4641h87.8976a30.0902,30.0902,0,0,1,0,60.1804h-87.8976Z"/>
        </g>
        <g>
          <path class="cls-6" d="M663.96028,1433.5127H576.06269a30.09013,30.09013,0,0,1-30.0901-30.0902h0a30.09019,30.09019,0,0,1,30.0901-30.0902h87.89759Z"/>
          <path class="cls-4" d="M663.96028,1373.3323h87.8975a30.09023,30.09023,0,0,1,30.09022,30.0902h0a30.09016,30.09016,0,0,1-30.09022,30.0902h-87.8975Z"/>
        </g>
        <g>
          <path class="cls-6" d="M663.80368,1543.3809H575.90619a30.09014,30.09014,0,0,1-30.09019-30.0902h0a30.09014,30.09014,0,0,1,30.09019-30.0902h87.89749Z"/>
          <path class="cls-4" d="M663.80368,1483.2005h87.8976a30.09013,30.09013,0,0,1,30.0901,30.0902h0a30.09013,30.09013,0,0,1-30.0901,30.0902h-87.8976Z"/>
        </g>
        <g>
          <path class="cls-6" d="M663.64708,1653.2491H575.74959a30.09019,30.09019,0,0,1-30.0901-30.0902h0a30.09013,30.09013,0,0,1,30.0901-30.0902h87.89749Z"/>
          <path class="cls-4" d="M663.64708,1593.0687h87.8976a30.09011,30.09011,0,0,1,30.0901,30.0902h0a30.09018,30.09018,0,0,1-30.0901,30.0902h-87.8976Z"/>
        </g>
      </g>
      <g>
        <g>
          <path class="cls-6" d="M966.21808,884.1717h-87.8975a30.09015,30.09015,0,1,1,0-60.1803h87.8975Z"/>
          <path class="cls-4" d="M966.21808,823.9914h87.89762a30.09015,30.09015,0,0,1,0,60.1803H966.21808Z"/>
        </g>
        <g>
          <path class="cls-6" d="M966.06158,994.0399H878.164a30.09015,30.09015,0,0,1,0-60.1803h87.89758Z"/>
          <path class="cls-4" d="M966.06158,933.8596h87.89752a30.09015,30.09015,0,1,1,0,60.1803H966.06158Z"/>
        </g>
        <g>
          <path class="cls-6" d="M965.905,1103.9081H878.00748a30.09015,30.09015,0,1,1,0-60.1803H965.905Z"/>
          <path class="cls-4" d="M965.905,1043.7278h87.8976a30.09015,30.09015,0,0,1,0,60.1803H965.905Z"/>
        </g>
        <g>
          <path class="cls-6" d="M965.74848,1213.7763h-87.8976a30.09015,30.09015,0,0,1,0-60.1803h87.8976Z"/>
          <path class="cls-4" d="M965.74848,1153.596H1053.646a30.09015,30.09015,0,0,1,0,60.1803H965.74848Z"/>
        </g>
        <g>
          <path class="cls-6" d="M965.59188,1323.6445h-87.8976a30.0902,30.0902,0,0,1,0-60.1804h87.8976Z"/>
          <path class="cls-4" d="M965.59188,1263.4641h87.89752a30.0902,30.0902,0,1,1,0,60.1804H965.59188Z"/>
        </g>
        <g>
          <path class="cls-6" d="M965.43528,1433.5127h-87.8975a30.09021,30.09021,0,0,1-30.0902-30.0902h0a30.09028,30.09028,0,0,1,30.0902-30.0902h87.8975Z"/>
          <path class="cls-4" d="M965.43528,1373.3323h87.89762a30.09019,30.09019,0,0,1,30.0901,30.0902h0a30.09013,30.09013,0,0,1-30.0901,30.0902H965.43528Z"/>
        </g>
        <g>
          <path class="cls-6" d="M965.27878,1543.3809h-87.8976a30.09013,30.09013,0,0,1-30.0901-30.0902h0a30.09013,30.09013,0,0,1,30.0901-30.0902h87.8976Z"/>
          <path class="cls-4" d="M965.27878,1483.2005h87.89752a30.09021,30.09021,0,0,1,30.0902,30.0902h0a30.09021,30.09021,0,0,1-30.0902,30.0902H965.27878Z"/>
        </g>
        <g>
          <path class="cls-6" d="M965.12218,1653.2491h-87.8975a30.09021,30.09021,0,0,1-30.0902-30.0902h0a30.09015,30.09015,0,0,1,30.0902-30.0902h87.8975Z"/>
          <path class="cls-4" d="M965.12218,1593.0687h87.89762a30.09013,30.09013,0,0,1,30.0901,30.0902h0a30.09019,30.09019,0,0,1-30.0901,30.0902H965.12218Z"/>
        </g>
      </g>
      <g>
        <g>
          <path class="cls-6" d="M1267.6932,884.1717h-87.8976a30.09015,30.09015,0,0,1,0-60.1803h87.8976Z"/>
          <path class="cls-4" d="M1267.6932,823.9914h87.8975a30.09015,30.09015,0,1,1,0,60.1803h-87.8975Z"/>
        </g>
        <g>
          <path class="cls-6" d="M1267.5366,994.0399h-87.8975a30.09015,30.09015,0,1,1,0-60.1803h87.8975Z"/>
          <path class="cls-4" d="M1267.5366,933.8596h87.8976a30.09015,30.09015,0,0,1,0,60.1803h-87.8976Z"/>
        </g>
        <g>
          <path class="cls-6" d="M1267.3801,1103.9081h-87.8976a30.09015,30.09015,0,0,1,0-60.1803h87.8976Z"/>
          <path class="cls-4" d="M1267.3801,1043.7278h87.8975a30.09015,30.09015,0,1,1,0,60.1803h-87.8975Z"/>
        </g>
        <g>
          <path class="cls-6" d="M1267.2235,1213.7763H1179.326a30.09015,30.09015,0,1,1,0-60.1803h87.8975Z"/>
          <path class="cls-4" d="M1267.2235,1153.596h87.8976a30.09015,30.09015,0,0,1,0,60.1803h-87.8976Z"/>
        </g>
        <g>
          <path class="cls-6" d="M1267.0669,1323.6445h-87.8975a30.0902,30.0902,0,0,1,0-60.1804h87.8975Z"/>
          <path class="cls-4" d="M1267.0669,1263.4641h87.8976a30.0902,30.0902,0,0,1,0,60.1804h-87.8976Z"/>
        </g>
        <g>
          <path class="cls-6" d="M1266.9104,1433.5127h-87.8976a30.09013,30.09013,0,0,1-30.0901-30.0902h0a30.09019,30.09019,0,0,1,30.0901-30.0902h87.8976Z"/>
          <path class="cls-4" d="M1266.9104,1373.3323h87.8975a30.09021,30.09021,0,0,1,30.0902,30.0902h0a30.09015,30.09015,0,0,1-30.0902,30.0902h-87.8975Z"/>
        </g>
        <g>
          <path class="cls-6" d="M1266.7538,1543.3809h-87.8975a30.09015,30.09015,0,0,1-30.0902-30.0902h0a30.09015,30.09015,0,0,1,30.0902-30.0902h87.8975Z"/>
          <path class="cls-4" d="M1266.7538,1483.2005h87.8976a30.09013,30.09013,0,0,1,30.0901,30.0902h0a30.09013,30.09013,0,0,1-30.0901,30.0902h-87.8976Z"/>
        </g>
        <g>
          <path class="cls-6" d="M1266.5973,1653.2491h-87.8976a30.09019,30.09019,0,0,1-30.0901-30.0902h0a30.09013,30.09013,0,0,1,30.0901-30.0902h87.8976Z"/>
          <path class="cls-4" d="M1266.5973,1593.0687h87.8975a30.09021,30.09021,0,0,1,30.0902,30.0902h0a30.09028,30.09028,0,0,1-30.0902,30.0902h-87.8975Z"/>
        </g>
      </g>
    </g>
  </g>
  <g>
    <g class="cls-12">
      <path class="cls-4" d="M1862.8825,1263.0114c-51.1733-120.2375-61.1183-422.721-263.0079-365.1252-199.7498,64.3031-39.4567,321.9789-15.12,449.735Z"/>
      <path class="cls-4" d="M1584.0144,1357.6829c13.9639,129.926-64.5571,422.2094,145.3553,425.8656,209.8179-3.3839,131.4585-296.5568,145.3577-425.8656Z"/>
    </g>
    <g>
      <g>
        <path class="cls-13" d="M1931.5158,1212.121l-307.4843,93.5405c-27.0359-141.9147-204.1325-425.7946,16.7135-497.2038C1863.7561,744.5254,1875.208,1079.8247,1931.5158,1212.121Z"/>
        <path class="cls-4" d="M1623.213,1316.7851h321.3976c-15.4378,143.6397,71.3712,466.7736-160.6977,470.8155C1551.949,1783.8597,1638.5793,1459.7422,1623.213,1316.7851Z"/>
      </g>
      <path class="cls-6" d="M1981.9554,1329.7402c-3.7168-53.2708-78.5173-74.1413-109.5613-31.3076-18.0265-38.2676-78.8755-24.6746-78.1495,18.3544-1.0827,33.3654,40.7629,53.5605,66.2619,32.7514a61.30953,61.30953,0,0,0,10.7125,23.7c-35.7158,59.8519,11.6073,142.1638,82.0158,140.22C2059.3014,1514.6501,2081.9584,1360.0638,1981.9554,1329.7402Z"/>
    </g>
  </g>
  <g>
    <rect class="cls-2" x="589.86569" y="1153.4964" width="253.51609" height="92.1531" rx="9.7582"/>
    <g class="cls-14">
      <rect class="cls-15" x="581.096" y="1217.4533" width="274.55038" height="35.6287"/>
    </g>
  </g>
  <g>
    <path class="cls-4" d="M599.62388,1245.6495h232.021a0,0,0,0,1,0,0v513.295A28.65988,28.65988,0,0,1,802.985,1787.6044H628.28378a28.6599,28.6599,0,0,1-28.6599-28.6599v-513.295A0,0,0,0,1,599.62388,1245.6495Z"/>
    <g class="cls-16">
      <polygon class="cls-13" points="572.235 1346.978 854.294 1321.333 854.294 1799.897 578.919 1799.897 572.235 1346.978"/>
    </g>
  </g>
  <rect class="cls-17" x="616.81818" y="1392.1266" width="194.9295" height="254.5776" rx="9.3958"/>
  <g>
    <rect class="cls-4" x="636.94448" y="1426.5229" width="154.6769" height="25.2949"/>
    <rect class="cls-4" x="636.94448" y="1466.8121" width="154.6769" height="25.2949"/>
    <rect class="cls-4" x="636.94448" y="1507.1013" width="154.6769" height="25.2949"/>
    <rect class="cls-4" x="636.94448" y="1547.3906" width="154.6769" height="25.2949"/>
    <rect class="cls-4" x="636.94448" y="1587.6798" width="102.5843" height="25.2949"/>
  </g>
  <g>
    <path class="cls-18" d="M1044.2026,1785.1596c-44.4726-3.8192-136.93032,19.9934-138.42122-50.6529l-.0013-413.3069s-8.6403-78.3434,69.2112-139.9584c77.85162-61.6149,105.34-109.8682,105.34-109.8682-12.1323,1.4959-24.6027-3.9077-24.7393-17.635l-.0002-74.599a17.63411,17.63411,0,0,1,17.6341-17.6342h71.7031v823.6546Z"/>
    <g>
      <g>
        <path class="cls-5" d="M1431.0502,1204.1034c-41.7207-37.9268-121.8802-71.0142-114.5851-138.6621h-200.799c7.3314,67.5852-72.9824,100.8521-114.5848,138.6637a170.21386,170.21386,0,0,0-65.73272,134.3754V1746.834a40.7704,40.7704,0,0,0,40.7703,40.7704c52.40532-1.2341,227.00822.8893,276.22522-.0027l203.6681.0027a40.77049,40.77049,0,0,0,40.7704-40.7704V1338.4804A170.21994,170.21994,0,0,0,1431.0502,1204.1034Z"/>
        <g class="cls-19">
          <polygon class="cls-20" points="1525.999 1329.918 918.048 1295.58 918.048 1815.786 1515.266 1815.786 1525.999 1329.918"/>
        </g>
      </g>
      <rect class="cls-6" x="935.34858" y="1346.9784" width="561.43402" height="251.7351"/>
      <g>
        <rect class="cls-4" x="1017.4175" y="1392.1266" width="412.7777" height="33.7236"/>
        <rect class="cls-4" x="1017.4175" y="1445.736" width="412.7777" height="33.7235"/>
        <rect class="cls-4" x="1017.4175" y="1499.3453" width="302.8508" height="33.7236"/>
      </g>
      <polygon class="cls-13" points="1430.195 1498.415 1393.024 1498.415 1393.024 1461.244 1357.439 1461.244 1357.439 1498.415 1320.268 1498.415 1320.268 1534 1357.439 1534 1357.439 1571.171 1393.024 1571.171 1393.024 1534 1430.195 1534 1430.195 1498.415"/>
      <g>
        <path class="cls-2" d="M1320.0999,1065.4413H1111.7952a28.20708,28.20708,0,0,1-28.2071-28.207V977.3797a28.20717,28.20717,0,0,1,28.2071-28.2071h208.3047a28.20717,28.20717,0,0,1,28.2071,28.2071C1344.9623,1003.5129,1362.2196,1064.5473,1320.0999,1065.4413Z"/>
        <g class="cls-21">
          <rect class="cls-15" x="1072.5483" y="1032.1747" width="289.1634" height="42.4837"/>
        </g>
      </g>
    </g>
  </g>
  <g>
    <path class="cls-4" d="M1950.6327,340.6986h245.5806a64.31325,64.31325,0,0,1,64.1245,64.1245c-.0189,60.9622,13.5601,143.7253-75.1999,139.9187v42.8755a15.69465,15.69465,0,0,1-26.3949,11.4813l-58.326-54.3568H1950.6327a64.31335,64.31335,0,0,1-64.1245-64.125C1886.9927,426.9482,1872.7478,343.5362,1950.6327,340.6986Z"/>
    <g>
      <path class="cls-6" d="M1953.9149,441.0515c.3822,22.3731,33.6616,22.3697,34.0405-.0007C1987.5733,418.6784,1954.2938,418.682,1953.9149,441.0515Z"/>
      <path class="cls-6" d="M2054.7325,441.0515c.3822,22.3731,33.6616,22.3697,34.0405-.0007C2088.3909,418.6784,2055.1114,418.682,2054.7325,441.0515Z"/>
      <path class="cls-6" d="M2155.5502,441.0515c.3821,22.3732,33.6615,22.3697,34.0404-.0007C2189.2085,418.6785,2155.929,418.682,2155.5502,441.0515Z"/>
    </g>
  </g>
  <g>
    <path class="cls-22" d="M2176.2369,1784.9074l9.7819-26.4511,63.9086-39.2733v-14.999h-28.6936l-8.1516-207.8578c-194.8223-58.3875-101.3706-263.3354-80.2561-385.78,0,0-37.3565,30.8932-78.1091,13.0639-40.7525-17.8292-133.9283-194.2613-133.9283-194.2613l174.6809,141.1431-17.2179-79.9755s87.1351-188.6624,92.015-194.5233,83.108-40.0202,83.108-40.0202-28.7463-3.1054-34.1894-17.3015,9.8222-123.3285,9.8222-123.3285l60.595-3.549V1787.6044Z"/>
    <path class="cls-22" d="M2288.8258,1510.3573l193.3206,199.5883,27.5086-13.4532,14.7816,13.4532s-27.6685,49.6712-24.8751,53.5115c2.7933,3.8404,16.7151,19.223,16.7151,19.223l64.8048-76.3478-212.6579-230.4194Z"/>
    <g>
      <g>
        <g>
          <path class="cls-3" d="M2261.2614,1675.7659l8.2061,69.6449s14.837,6.2222,30.5594,6.0659c15.7225-.1563,16.3633-5.0413,16.3633-5.0413l-1.9808-71.649Z"/>
          <g class="cls-23">
            <path class="cls-24" d="M2330.6985,1713.133s-37.9661,8.5992-76.2243-10.0517l-.9565-32.6458h73.1689Z"/>
          </g>
        </g>
        <path class="cls-2" d="M2316.3902,1746.4354s-40.9328,12.7945-47.7617-14.4301l-55.506,27.0566a24.41168,24.41168,0,0,0-13.5701,24.3303h0l112.4364,1.5152C2327.212,1785.2951,2316.8454,1755.338,2316.3902,1746.4354Z"/>
      </g>
      <g>
        <g>
          <path class="cls-3" d="M2499.5615,1659.7491l48.9702,50.1965s15.5537-4.1154,27.9198-13.826c12.3662-9.7106,9.8955-13.9732,9.8955-13.9732l-45.258-55.5807Z"/>
          <g class="cls-25">
            <path class="cls-24" d="M2582.7139,1657.9611s-24.8483,29.9655-66.5439,38.511l-20.6639-25.2916,57.9932-44.6148Z"/>
          </g>
        </g>
        <path class="cls-2" d="M2586.347,1682.1464s-24.6416,35.0997-46.6543,17.6855l-27.4959,55.2898a24.41182,24.41182,0,0,0,4.0798,27.5584h0l90.0402-67.3573C2618.7133,1706.5519,2592.0499,1688.7848,2586.347,1682.1464Z"/>
      </g>
      <g>
        <path class="cls-3" d="M2277.0273,780.7836l-4.8045-39.6463c-18.8193,1.3199-41.6555,2.1691-41.181-22.9388l9.5843-92.9276,96.0168.0231c-2.3503,38.7774.6929,116.7988,5.1561,155.4896Z"/>
        <g class="cls-26">
          <path class="cls-24" d="M2272.2228,741.1373a37.939,37.939,0,0,0,26.3648-24.2807s1.731,37.0516-27.9832,44.5796l1.6184-20.2989"/>
          <path class="cls-24" d="M2324.3953,643.5029s-60.668,16.5711-93.0065,12.747l2.928-39.0907,90.0785,12.7469Z"/>
          <path class="cls-6" d="M2241.1911,717.2055l23.3717-6.6888S2253.4132,732.2552,2241.1911,717.2055Z"/>
        </g>
      </g>
      <path class="cls-2" d="M2316.6387,634.9737s-29.4399-9.0109-76.0126-9.7028-31.1599-41.1952-31.1599-41.1952,107.1725-29.7502,129.3955,0c22.2231,29.7502,5.735,36.9189,5.735,36.9189,52.8177-1.4559-5.0129,73.503-9.0715,78.8646l-15.2802-27.5736s8.9952.6276,10.4595-2.9286c1.4644-3.5563,4.393-19.0363.8368-20.2915-3.5562-1.2551-15.4801,6.0665-15.4801,6.0665Z"/>
      <path class="cls-5" d="M2275.6865,769.7194s-80.5911,26.7845-90.6558,49.4301c-10.0647,22.6457,22.1971,286.3906,22.1971,286.3906h210.8708s23.9686-244.4469,24.1419-263.0364c.4437-47.5859-101.3726-73.7293-101.3726-73.7293Z"/>
      <polygon class="cls-2" points="2207.228 1105.54 2244.532 1696.492 2341.219 1696.492 2341.219 1105.54 2207.228 1105.54"/>
      <path class="cls-2" d="M2418.0986,1105.5401l19.0224,51.2677c23.2822,47.2178-3.4723,214.5477-3.1935,266.2331l137.0491,215.7546-73.3536,50.2026-168.6971-189.1669a95.43394,95.43394,0,0,1-23.4617-62.6709V1105.5401Z"/>
      <path class="cls-15" d="M2341.2192,1513.6162s-35.755-38.0353-35.755-66.9531c0-12.8437-8.1397-213.4101-8.1397-213.4101s-24.0864,203.5216-23.101,227.4653,66.9957,112.2311,66.9957,112.2311Z"/>
      <path class="cls-6" d="M2275.572,768.7744l29.2123.5231c-8.4974,11.473-17.5323,36.452-35.9946,23.1006l-15.415-14.4866Z"/>
      <path class="cls-6" d="M2304.0297,769.1959c24.3419,37.1896,20.6767,24.6989,53.4103,4.6323l-16.6118-5.5664Z"/>
      <path class="cls-2" d="M2308.9783,789.5884c9.3377-3.4767,6.2828-19.6268,3.6844-20.8143.0009.0003-9.2137-6.0634-15.025.627-.168-.5307-7.3404,16.1935.0771,21.0852-3.853,32.433-25.854,217.9167-25.58,222.2838.3,4.786,20.0974,52.6463,20.0974,52.6463s33.8908-40.872,34.7373-48.0598C2327.7495,1010.7317,2311.5249,819.5052,2308.9783,789.5884Z"/>
      <g>
        <g>
          <path class="cls-6" d="M2174.1184,822.952l-95.8667,167.5644-123.286-137.1203-56.411,39.1227,118.7746,181.3577a70.03331,70.03331,0,0,0,58.587,31.6635c40.9488,3.5807,61.327-22.985,84.238-51.7354-6.5462,31.1098-51.9573,250.4194-48.9248,315.6158,3.2161,69.1462,120.0105,116.5104,120.0105,116.5104l14.9797-705.1472S2184.759,802.0474,2174.1184,822.952Z"/>
          <g class="cls-27">
            <path class="cls-28" d="M2178.849,996.6116s17.107,14.1041,20.4838,14.8277,46.8869,21.9495,46.8869,21.9495l1.1125-34.7333-28.1469-17.1254-40.3363,15.0815"/>
          </g>
        </g>
        <path class="cls-28" d="M2160.1543,1053.8046l17.1978-129.5217c-60.8367,139.2983-80.1852,193.0484-214.5496,66.3362l54.5268,83.2574C2049.0578,1123.677,2128.2952,1113.7068,2160.1543,1053.8046Z"/>
      </g>
      <g>
        <path class="cls-6" d="M2363.4474,772.4732s17.3207,634.5466,44.2261,667.3011c26.9054,32.7544,136.8668,91.0494,152.0742,76.5244,15.2074-14.5249-65.5089-435.6536-65.5089-478.9362C2489.003,859.5185,2528.0491,818.6345,2363.4474,772.4732Z"/>
        <path class="cls-28" d="M2502.9995,1105.5401s-26.1244,13.9345-64.7791-4.5402-63.8321-30.508-63.8321-30.508c24.9549,29.0565,70.415,103.8414,136.8277,86.3757Z"/>
        <path class="cls-28" d="M2370.2058,971.3901l84.7328,19.229s-12.1364-69.736,0-122.5406c0,0-27.5932,25.8687-23.5329,90.4628l-62.3142-16.1587Z"/>
        <path class="cls-6" d="M2484.8804,834.9868l59.4628,179.2032a73.27534,73.27534,0,0,1-13.3795,70.1357h-.0001a73.27527,73.27527,0,0,1-87.7648,19.0536L2219.1853,996.314l11.746-59.1568,215.9705,53.0843S2426.7121,874.0501,2484.8804,834.9868Z"/>
      </g>
      <g>
        <path class="cls-2" d="M1955.5674,936.3247l-125.3923,1.3945c-10.5177,9.3684-114.1694-158.5027-120.3088-161.9619a5.14744,5.14744,0,0,1,4.1725-8.0775l127.9855-1.4233a8.69328,8.69328,0,0,1,7.2398,3.738l110.1738,158.8339A4.775,4.775,0,0,1,1955.5674,936.3247Z"/>
        <g>
          <polygon class="cls-7" points="1843.774 775.401 1944.456 920.946 1828.676 922.507 1729.12 777.84 1843.774 775.401"/>
          <g class="cls-29">
            <path class="cls-28" d="M1811.3583,771.8868s37.6149,71.2627-10.5029,110.1928h0l26.4436,45.1006,124.4405-2.8973L1846.3192,772.9181Z"/>
          </g>
        </g>
      </g>
      <path class="cls-3" d="M1943.211,861.5483s-25.0479-23.7942-29.3153-25.0744-43.7411-7.6814-43.9545-5.5476c6.8703,19.4882,26.1194,22.5857,40.3656,27.0715,0,0,12.7866,18.434,12.3504,17.8051C1922.221,875.1741,1943.211,861.5483,1943.211,861.5483Z"/>
      <path class="cls-2" d="M2201.5156,882.4217a7.19826,7.19826,0,0,0-9.4897,3.6847c-.5102,1.4264-57.0064,128.868-57.3018,130.3136l-.032-.0163c-9.4166,37.9852-12.3371,37.5585,12.5315,6.3951l-.0046-.0024c1.7455-1.8607,56.7274-128.7755,57.9833-130.8877A7.1984,7.1984,0,0,0,2201.5156,882.4217Z"/>
      <g>
        <path class="cls-3" d="M2229.3228,945.2581s-27.0158-17.1438-32.6458-17.4566c-5.6299-.3128-47.5415,8.6402-47.2287,17.4566.3128,8.8163,22.2069,51.979,29.4007,51.3535,7.1938-.6256,41.4625-5.9698,41.4625-5.9698Z"/>
        <g class="cls-30">
          <path class="cls-24" d="M2232.4993,960.6802s-44.6547,33.151-65.8862,28.0113l9.3496,11.8213,57.8216-5.3966Z"/>
        </g>
      </g>
      <g>
        <rect class="cls-2" x="2280.18489" y="656.98395" width="38.54332" height="1.99986" transform="translate(-92.06802 690.44087) rotate(-16.7459)"/>
        <g>
          <path class="cls-2" d="M2241.1914,681.8418c-17.1873.0203-17.1851-40.3118.0011-40.287C2258.3788,641.5344,2258.3764,681.8665,2241.1914,681.8418Zm0-38.2871c-14.5724-.0442-14.5703,36.3353.001,36.287C2255.7637,679.8859,2255.7618,643.5065,2241.1914,643.5547Z"/>
          <path class="cls-2" d="M2268.8174,683.6763c-17.1873.0202-17.1851-40.3118.0011-40.287C2286.0047,643.3689,2286.0024,683.7009,2268.8174,683.6763Zm0-38.2871c-14.5724-.0442-14.5703,36.3353.001,36.287C2283.3897,681.7204,2283.3878,645.341,2268.8174,645.3892Z"/>
          <rect class="cls-2" x="2254.01929" y="660.29883" width="2.00047" height="3.332" transform="translate(1240.66927 2781.96578) rotate(-80.79012)"/>
        </g>
      </g>
    </g>
  </g>
  <rect class="cls-2" x="183.5933" y="1782.8535" width="2646.0151" height="9.502"/>
  <g>
    <path class="cls-4" d="M1506.6008,548.4442c-5.046,295.4708-444.5533,295.4246-449.5563-.0095C1062.0903,252.9734,1501.5975,253.0197,1506.6008,548.4442Z"/>
    <polygon class="cls-31" points="1388.173 420.032 1246.931 561.274 1190.685 505.029 1149.706 546.009 1205.951 602.255 1205.796 602.409 1246.777 643.389 1429.153 461.012 1388.173 420.032"/>
  </g>
</svg>
