<svg id="Layer_1" data-name="Layer 1" xmlns="http://www.w3.org/2000/svg" viewBox="0 0 560.00126 288">
  <defs>
    <style>
      .cls-1 {
        fill: none;
      }

      .cls-2 {
        fill: #666565;
      }
    </style>
  </defs>
  <g>
    <path class="cls-1" d="M191.98206,77.26343a38.32337,38.32337,0,1,0,38.32336,38.32336A38.32337,38.32337,0,0,0,191.98206,77.26343Zm13.92175,39.85083-26.29065,16.649a.6739.6739,0,0,1-.92529-.20282l-1.27045-1.88935a.74283.74283,0,0,1,.20636-1.03393l21.21484-13.49933a1.94167,1.94167,0,0,0-.01092-3.24677l-21.30536-13.34277A.74254.74254,0,0,1,177.309,99.516l1.25769-1.89868a.67406.67406,0,0,1,.92389-.2096l26.40228,16.455A1.94189,1.94189,0,0,1,205.90381,117.11426Z"/>
    <path class="cls-2" d="M191.98206,72.77246a42.81436,42.81436,0,1,0,42.81439,42.81433A42.8144,42.8144,0,0,0,191.98206,72.77246Zm0,81.1377a38.32337,38.32337,0,1,1,38.32336-38.32337A38.32337,38.32337,0,0,1,191.98206,153.91016Z"/>
    <path class="cls-2" d="M205.1864,113.4224,179.932,97.68286a1.208,1.208,0,0,0-1.646.35808l-.68868,1.03966a1.2518,1.2518,0,0,0,.37919,1.7522l20.14978,12.61907a2.442,2.442,0,0,1,.01484,4.12981l-20.06535,12.76789a1.25215,1.25215,0,0,0-.36687,1.75512l.70185,1.04375a1.19557,1.19557,0,0,0,1.63177.34294l25.1587-15.93223A2.4427,2.4427,0,0,0,205.1864,113.4224Z"/>
  </g>
</svg>
