<svg id="Layer_1" data-name="Layer 1" xmlns="http://www.w3.org/2000/svg" viewBox="0 0 1920 1080">
  <defs>
    <style>
      .cls-1 {
        fill: none;
      }

      .cls-2 {
        fill: #1f4476;
        stroke: #1f4476;
      }

      .cls-2, .cls-3 {
        stroke-miterlimit: 10;
      }

      .cls-3 {
        fill: #f8b697;
        stroke: #f8b697;
      }
    </style>
  </defs>
  <g>
    <path class="cls-1" d="M469.5,96A301.15612,301.15612,0,0,0,454.0481.5H-.5V346.0556A300.09817,300.09817,0,0,0,168,397.5C334.51385,397.5,469.5,262.51385,469.5,96Z"/>
    <path class="cls-2" d="M469.5,96c0,166.51385-134.98615,301.5-301.5,301.5A300.09817,300.09817,0,0,1-.5,346.0556v52.55695A348.424,348.424,0,0,0,167.5,441.5c193.29968,0,350-156.70038,350-350A350.45348,350.45348,0,0,0,505.5495.5H454.0481A301.15612,301.15612,0,0,1,469.5,96Z"/>
  </g>
  <path class="cls-3" d="M219.5,989A139.51057,139.51057,0,0,0-.5,875.06036V1079.5H186.15253A138.93949,138.93949,0,0,0,219.5,989Z"/>
  <path class="cls-3" d="M1235,1007.5a108.53909,108.53909,0,0,0-102.2002,72h204.4004A108.53909,108.53909,0,0,0,1235,1007.5Z"/>
  <path class="cls-3" d="M1234.35767.5a118.89425,118.89425,0,0,0,109.2749,72A118.89459,118.89459,0,0,0,1452.90771.5Z"/>
  <path class="cls-1" d="M1919.9209,210.18237A134.53562,134.53562,0,0,0,1993.92639-.27222l-73.70154.18335Z"/>
  <path class="cls-1" d="M1777.68127.26575A134.55539,134.55539,0,0,0,1919.9209,210.18237l.30395-210.27124Z"/>
  <path class="cls-1" d="M1920.29712-50.08063A134.663,134.663,0,0,0,1777.68127.26575l142.54358-.35462Z"/>
  <path class="cls-3" d="M1886,214.5A134.50117,134.50117,0,0,1,1777.68127.26575L1751.31616.3313A149.20492,149.20492,0,0,0,1728,80.5c0,84.7757,70.96289,153.5,158.5,153.5a164.0733,164.0733,0,0,0,33.39148-3.42389l.02942-20.39374A134.71716,134.71716,0,0,1,1886,214.5Z"/>
  <path class="cls-1" d="M1615.36694,1079.5c16.0232,72.64648,78.82849,126.85449,153.86939,126.85449,70.90906,0,130.89367-48.40234,150.8042-115.02734l.02124-11.82715Z"/>
  <path class="cls-1" d="M1920.2124,995.25037c-19.73022-66.93207-79.85583-115.62531-150.97607-115.62531-87.16724,0-157.83032,73.14087-157.83032,163.36469a169.37131,169.37131,0,0,0,3.96093,36.51025h304.69483Z"/>
  <path class="cls-2" d="M1611.406,1042.98975c0-90.22382,70.66308-163.36469,157.83032-163.36469,71.12024,0,131.24585,48.69324,150.97607,115.62531l.11353-63.41822a187.0701,187.0701,0,0,0-150.74939-76.1485c-103.51111,0-187.42346,84.0174-187.42346,187.65815a188.78642,188.78642,0,0,0,3.48986,36.1582h29.724A169.37131,169.37131,0,0,1,1611.406,1042.98975Z"/>
  <path class="cls-1" d="M744.5,1251.5c107.379,0,197.704-72.9563,224.14954-172H520.35046C546.796,1178.5437,637.12109,1251.5,744.5,1251.5Z"/>
  <path class="cls-1" d="M744.5,787.5c-128.13007,0-232,103.86993-232,232a232.278,232.278,0,0,0,7.85046,60H968.64954a232.278,232.278,0,0,0,7.85046-60C976.5,891.36993,872.63013,787.5,744.5,787.5Z"/>
  <path class="cls-2" d="M512.5,1019.5c0-128.13007,103.86993-232,232-232,128.13013,0,232,103.86993,232,232a232.278,232.278,0,0,1-7.85046,60h44.95A258.98881,258.98881,0,0,0,1020.5,1020c0-147.1839-123.34558-266.5-275.5-266.5S469.5,872.8161,469.5,1020a258.98881,258.98881,0,0,0,6.90045,59.5h43.95A232.278,232.278,0,0,1,512.5,1019.5Z"/>
</svg>
